{
  "accessors": [
    {
      "bufferView": 2,
      "componentType": 5126,
      "count": 822,
      "max": [
        405.09844970703125,
        24.847805023193359,
        397.61410522460938
      ],
      "min": [
        -385.22451782226562,
        -86.119796752929688,
        -381.4639892578125
      ],
      "type": "VEC3"
    },
    {
      "bufferView": 2,
      "byteOffset": 9864,
      "componentType": 5126,
      "count": 822,
      "max": [
        1,
        1,
        1
      ],
      "min": [
        -1,
        -1,
        -1
      ],
      "type": "VEC3"
    },
    {
      "bufferView": 3,
      "componentType": 5126,
      "count": 822,
      "max": [
        1,
        4.8350928409490734e-05,
        1,
        1
      ],
      "min": [
        -1,
        -0.0012570068938657641,
        -1,
        1
      ],
      "type": "VEC4"
    },
    {
      "bufferView": 1,
      "componentType": 5126,
      "count": 822,
      "max": [
        0.99186044931411743,
        0.99203431606292725
      ],
      "min": [
        0.0081395376473665237,
        0.0079656839370727539
      ],
      "type": "VEC2"
    },
    {
      "bufferView": 0,
      "componentType": 5125,
      "count": 2304,
      "max": [
        821
      ],
      "min": [
        0
      ],
      "type": "SCALAR"
    }
  ],
  "asset": {
    "extras": {
      "author": "vettorazi (https://sketchfab.com/vettorazi)",
      "license": "CC-BY-4.0 (http://creativecommons.org/licenses/by/4.0/)",
      "source": "https://sketchfab.com/models/d8886310cfc74b7c9ed0293b7a460d55",
      "title": "palco bussola"
    },
    "generator": "Sketchfab-3.21.5",
    "version": "2.0"
  },
  "bufferViews": [
    {
      "buffer": 0,
      "byteLength": 9216,
      "byteOffset": 0,
      "name": "floatBufferViews",
      "target": 34963
    },
    {
      "buffer": 0,
      "byteLength": 6576,
      "byteOffset": 9216,
      "byteStride": 8,
      "name": "floatBufferViews",
      "target": 34962
    },
    {
      "buffer": 0,
      "byteLength": 19728,
      "byteOffset": 15792,
      "byteStride": 12,
      "name": "floatBufferViews",
      "target": 34962
    },
    {
      "buffer": 0,
      "byteLength": 13152,
      "byteOffset": 35520,
      "byteStride": 16,
      "name": "floatBufferViews",
      "target": 34962
    }
  ],
  "buffers": [
    {
      "byteLength": 48672,
      "uri": "scene.bin"
    }
  ],
  "images": [
    {
      "uri": "textures/Tube_baseColor.png"
    }
  ],
  "materials": [
    {
      "doubleSided": true,
      "emissiveFactor": [
        0,
        0,
        0
      ],
      "name": "Tube",
      "pbrMetallicRoughness": {
        "baseColorFactor": [
          1,
          1,
          1,
          1
        ],
        "baseColorTexture": {
          "index": 0,
          "texCoord": 0
        },
        "metallicFactor": 1,
        "roughnessFactor": 0.72389481709999992
      }
    }
  ],
  "meshes": [
    {
      "name": "Tube_Tube_0",
      "primitives": [
        {
          "attributes": {
            "NORMAL": 1,
            "POSITION": 0,
            "TANGENT": 2,
            "TEXCOORD_0": 3
          },
          "indices": 4,
          "material": 0,
          "mode": 4
        }
      ]
    }
  ],
  "nodes": [
    {
      "children": [
        1
      ],
      "name": "RootNode (gltf orientation matrix)",
      "rotation": [
        -0.70710678118654746,
        -0,
        -0,
        0.70710678118654757
      ]
    },
    {
      "children": [
        2
      ],
      "name": "RootNode (model correction matrix)"
    },
    {
      "children": [
        3
      ],
      "matrix": [
        1,
        0,
        0,
        0,
        0,
        0,
        1,
        0,
        0,
        -1,
        0,
        0,
        0,
        0,
        0,
        1
      ],
      "name": "palco bussola.fbx"
    },
    {
      "children": [
        4
      ],
      "name": "RootNode"
    },
    {
      "children": [
        5
      ],
      "matrix": [
        1,
        0,
        0,
        0,
        0,
        1,
        0,
        0,
        0,
        0,
        1,
        0,
        0,
        44.676830291748047,
        61.352291107177734,
        1
      ],
      "name": "Tube"
    },
    {
      "mesh": 0,
      "name": "Tube_Tube_0"
    }
  ],
  "samplers": [
    {
      "magFilter": 9729,
      "minFilter": 9987,
      "wrapS": 10497,
      "wrapT": 10497
    }
  ],
  "scene": 0,
  "scenes": [
    {
      "name": "OSG_Scene",
      "nodes": [
        0
      ]
    }
  ],
  "textures": [
    {
      "sampler": 0,
      "source": 0
    }
  ]
}

